<?xml version="1.0" encoding="iso-8859-1"?>
<!-- Generator: Adobe Illustrator 16.0.0, SVG Export Plug-In . SVG Version: 6.00 Build 0)  -->
<!DOCTYPE svg PUBLIC "-//W3C//DTD SVG 1.1//EN" "http://www.w3.org/Graphics/SVG/1.1/DTD/svg11.dtd">
<svg version="1.1" id="Capa_1" xmlns="http://www.w3.org/2000/svg" xmlns:xlink="http://www.w3.org/1999/xlink" x="0px" y="0px"
	 width="974.505px" height="974.505px" viewBox="0 0 974.505 974.505" style="enable-background:new 0 0 974.505 974.505;"
	 xml:space="preserve">
<g>
	<path d="M284.22,974.505h624.5c33.3,0,60.2-27,60.2-60.2v-526c0-24.9-20.101-45-45-45h-260.5c-24.9,0-45-20.1-45-45v-253.2
		c0-24.9-20.101-45-45-45h-289.2c-33.3,0-60.2,27-60.2,60.2v77.2l404.101,401.3c10.6,10.601,18.699,23.7,23.399,37.9l47.7,145.7
		c4,12.199,4.9,25.199,2.7,37.8c-2,11.6-6.8,22.899-13.8,32.5c-14.801,20.399-38.5,32.6-63.5,32.6c-6.4,0-12.9-0.8-19.101-2.399
		l-154.899-39c-16.601-4.2-31.9-12.801-44-24.801l-182.7-181.399v336.5C223.92,947.505,250.92,974.505,284.22,974.505z"/>
	<path d="M949.02,274.705c17.8,0,26.7-21.5,14.101-34.1L728.52,5.905c-12.6-12.6-34.1-3.7-34.1,14.1v234.6c0,11.1,9,20.1,20.1,20.1
		H949.02z"/>
	<path d="M120.82,140.105c-12.7,0-25.5,4.2-33.9,12.6l-68.8,68.8c-16.6,16.6-16.9,50.3-0.6,66.6l60,59.6l136-136l-60-59.6
		C145.42,144.105,133.22,140.105,120.82,140.105z"/>
	<polygon points="417.82,685.705 553.82,549.705 256.12,254.005 223.92,286.205 120.12,390.005 223.92,493.205 	"/>
	<path d="M620.22,764.805c1.5,0.4,3,0.601,4.5,0.601c12,0,21.5-12,17.6-24.2l-47.8-145.7c-0.1-0.4-0.3-0.8-0.399-1.1l-130.9,130.8
		c0.7,0.2,1.4,0.399,2,0.6L620.22,764.805z"/>
</g>
<g>
</g>
<g>
</g>
<g>
</g>
<g>
</g>
<g>
</g>
<g>
</g>
<g>
</g>
<g>
</g>
<g>
</g>
<g>
</g>
<g>
</g>
<g>
</g>
<g>
</g>
<g>
</g>
<g>
</g>
</svg>
